<svg xmlns="http://www.w3.org/2000/svg" viewBox="0 0 800 600" width="800" height="600">
  <defs>
    <radialGradient id="bg-wispy" cx="50%" cy="50%" r="70%">
      <stop offset="0%" stop-color="#1f1408"/>
      <stop offset="100%" stop-color="#0a0604"/>
    </radialGradient>
    <radialGradient id="iris-wispy" cx="50%" cy="50%" r="50%">
      <stop offset="0%" stop-color="#3a2818"/>
      <stop offset="100%" stop-color="#0f0a05"/>
    </radialGradient>
  </defs>
  <rect width="800" height="600" fill="url(#bg-wispy)"/>
  <g transform="translate(400 320)">
    <ellipse cx="0" cy="-15" rx="220" ry="40" fill="#2a1808" opacity="0.4"/>
    <path d="M -200 0 Q -100 -55 0 -55 Q 100 -55 200 0 Q 100 55 0 55 Q -100 55 -200 0 Z" fill="#fafafa"/>
    <circle cx="0" cy="0" r="50" fill="url(#iris-wispy)"/>
    <circle cx="0" cy="0" r="20" fill="#000"/>
    <circle cx="-12" cy="-12" r="9" fill="white" opacity="0.95"/>
    <!-- Wispy 14mm: 短，wisps 间距大，自然 -->
    <g stroke="#1a1208" stroke-linecap="round" fill="none" stroke-width="2.2">
      <path d="M -180 -25 Q -185 -50 -178 -62"/>
      <path d="M -150 -42 Q -150 -72 -140 -85"/>
      <path d="M -110 -50 Q -108 -85 -95 -98"/>
      <path d="M  -70 -54 Q  -65 -92 -50 -105"/>
      <path d="M  -30 -55 Q  -22 -95  -8 -108"/>
      <path d="M   10 -55 Q   18 -95  32 -108"/>
      <path d="M   50 -54 Q   58 -92  72 -105"/>
      <path d="M   90 -50 Q   98 -85 110 -98"/>
      <path d="M  130 -42 Q  138 -72 148 -85"/>
      <path d="M  165 -25 Q  170 -50 178 -62"/>
    </g>
    <g stroke="#1a1208" stroke-linecap="round" fill="none" stroke-width="1.3">
      <path d="M -130 35 Q -128 50 -120 60"/>
      <path d="M  -60 50 Q  -55 65 -48 75"/>
      <path d="M   60 50 Q   65 65  72 75"/>
      <path d="M  130 35 Q  135 50 142 60"/>
    </g>
  </g>
  <text x="400" y="540" text-anchor="middle" font-family="Georgia, serif"
        font-size="18" font-weight="300" fill="#d4a955" letter-spacing="6">WISPY · 14MM · FAUX</text>
</svg>
