<svg xmlns="http://www.w3.org/2000/svg" viewBox="0 0 800 600" width="800" height="600">
  <defs>
    <radialGradient id="bg-bold" cx="50%" cy="50%" r="70%">
      <stop offset="0%" stop-color="#250d05"/>
      <stop offset="100%" stop-color="#0a0302"/>
    </radialGradient>
    <radialGradient id="iris-bold" cx="50%" cy="50%" r="50%">
      <stop offset="0%" stop-color="#4a2818"/>
      <stop offset="100%" stop-color="#180a05"/>
    </radialGradient>
  </defs>
  <rect width="800" height="600" fill="url(#bg-bold)"/>
  <g transform="translate(400 325)">
    <ellipse cx="0" cy="-25" rx="240" ry="55" fill="#3a1408" opacity="0.6"/>
    <ellipse cx="0" cy="-10" rx="220" ry="35" fill="#1a0805" opacity="0.6"/>
    <path d="M -210 0 Q -100 -55 0 -55 Q 100 -55 210 0 Q 100 55 0 55 Q -100 55 -210 0 Z" fill="#faf8f5"/>
    <circle cx="0" cy="0" r="50" fill="url(#iris-bold)"/>
    <circle cx="0" cy="0" r="18" fill="#000"/>
    <circle cx="-12" cy="-13" r="9" fill="white" opacity="0.95"/>
    <!-- Bold Faux 22mm 浓密 + 外眼角延伸 -->
    <g stroke="#000" stroke-linecap="round" fill="none">
      <path d="M -200 -15 Q -205 -50 -200 -65"  stroke-width="3"/>
      <path d="M -180 -30 Q -188 -78 -175 -95"  stroke-width="3.8"/>
      <path d="M -155 -42 Q -160 -95 -140 -118" stroke-width="4.5"/>
      <path d="M -130 -50 Q -135 -110 -110 -130" stroke-width="5"/>
      <path d="M -105 -54 Q -108 -120  -75 -142" stroke-width="5.2"/>
      <path d="M  -80 -56 Q  -78 -125  -45 -148" stroke-width="5.4"/>
      <path d="M  -55 -57 Q  -48 -128  -15 -150" stroke-width="5.5"/>
      <path d="M  -30 -57 Q  -20 -130   12 -150" stroke-width="5.5"/>
      <path d="M   -5 -57 Q    5 -130   38 -150" stroke-width="5.5"/>
      <path d="M   20 -57 Q   30 -128   60 -148" stroke-width="5.4"/>
      <path d="M   45 -56 Q   55 -125   80 -145" stroke-width="5.3"/>
      <path d="M   70 -54 Q   78 -120   98 -140" stroke-width="5.2"/>
      <path d="M   95 -50 Q  100 -115  118 -135" stroke-width="5"/>
      <path d="M  120 -45 Q  128 -108  145 -128" stroke-width="4.8"/>
      <path d="M  145 -38 Q  155 -100  175 -120" stroke-width="4.5"/>
      <!-- Wing 外延 -->
      <path d="M  165 -28 Q  185 -85  208 -105" stroke-width="4"/>
      <path d="M  185 -15 Q  205 -68  225 -92"  stroke-width="3.5"/>
    </g>
    <g stroke="#000" stroke-linecap="round" fill="none" stroke-width="2">
      <path d="M -120 40 Q -118 65 -108 78"/>
      <path d="M  -60 53 Q  -52 78 -42 92"/>
      <path d="M    0 58 Q   10 80  18 95"/>
      <path d="M   60 53 Q   70 78  80 90"/>
      <path d="M  120 40 Q  130 62 138 75"/>
    </g>
  </g>
  <text x="400" y="555" text-anchor="middle" font-family="Georgia, serif"
        font-size="18" font-weight="300" fill="#d4a955" letter-spacing="6">BOLD WING · 22MM · FAUX</text>
</svg>
