<svg xmlns="http://www.w3.org/2000/svg" viewBox="0 0 800 600" width="800" height="600">
  <defs>
    <radialGradient id="bg-glam" cx="50%" cy="50%" r="70%">
      <stop offset="0%" stop-color="#2a1a0a"/>
      <stop offset="100%" stop-color="#0f0805"/>
    </radialGradient>
    <radialGradient id="iris-glam" cx="50%" cy="50%" r="50%">
      <stop offset="0%" stop-color="#4a2a3a"/>
      <stop offset="50%" stop-color="#5a3a48"/>
      <stop offset="100%" stop-color="#1a0a18"/>
    </radialGradient>
    <linearGradient id="goldShine" x1="0%" y1="0%" x2="100%" y2="0%">
      <stop offset="0%" stop-color="#d4a955" stop-opacity="0"/>
      <stop offset="50%" stop-color="#f5d77b" stop-opacity="0.3"/>
      <stop offset="100%" stop-color="#d4a955" stop-opacity="0"/>
    </linearGradient>
  </defs>
  <rect width="800" height="600" fill="url(#bg-glam)"/>
  <!-- 金色光斑 -->
  <ellipse cx="200" cy="150" rx="80" ry="40" fill="url(#goldShine)"/>
  <ellipse cx="600" cy="450" rx="100" ry="50" fill="url(#goldShine)"/>
  <g transform="translate(400 330)">
    <!-- 眼影 -->
    <ellipse cx="0" cy="-25" rx="250" ry="65" fill="#5a3a18" opacity="0.5"/>
    <ellipse cx="0" cy="-10" rx="225" ry="35" fill="#3a1a08" opacity="0.6"/>
    <!-- 眼白 -->
    <path d="M -210 0 Q -100 -58 0 -58 Q 100 -58 210 0 Q 100 58 0 58 Q -100 58 -210 0 Z"
          fill="#fefcf8"/>
    <!-- 虹膜 -->
    <circle cx="0" cy="0" r="50" fill="url(#iris-glam)"/>
    <circle cx="0" cy="0" r="18" fill="#000"/>
    <circle cx="-12" cy="-15" r="10" fill="white" opacity="0.95"/>
    <circle cx="18" cy="12" r="4" fill="white" opacity="0.6"/>
    <!-- 上睫毛（25mm 极致 cluster 浓密夸张） -->
    <g stroke="#000" stroke-linecap="round" fill="none">
      <!-- cluster 设计：成束的睫毛 -->
      <path d="M -195 -18 Q -200 -55 -200 -75"   stroke-width="3"/>
      <path d="M -180 -32 Q -188 -85 -178 -110"  stroke-width="4"/>
      <path d="M -175 -32 Q -175 -90 -160 -115"  stroke-width="4"/>
      <path d="M -155 -42 Q -160 -100 -135 -132" stroke-width="5"/>
      <path d="M -150 -42 Q -148 -110 -120 -135" stroke-width="5"/>
      <path d="M -125 -52 Q -130 -120 -100 -150" stroke-width="5.5"/>
      <path d="M -120 -52 Q -118 -130  -85 -158" stroke-width="5.5"/>
      <path d="M  -95 -56 Q -100 -135  -65 -165" stroke-width="6"/>
      <path d="M  -90 -56 Q  -85 -140  -55 -168" stroke-width="6"/>
      <path d="M  -65 -58 Q  -70 -145  -32 -175" stroke-width="6.2"/>
      <path d="M  -60 -58 Q  -50 -148  -20 -178" stroke-width="6.2"/>
      <path d="M  -35 -58 Q  -40 -150   -2 -180" stroke-width="6.5"/>
      <path d="M  -30 -58 Q  -18 -152   12 -180" stroke-width="6.5"/>
      <path d="M   -5 -58 Q  -10 -150   25 -178" stroke-width="6.5"/>
      <path d="M    0 -58 Q   12 -148   38 -175" stroke-width="6.2"/>
      <path d="M   25 -58 Q   18 -145   50 -170" stroke-width="6.2"/>
      <path d="M   30 -58 Q   42 -140   65 -165" stroke-width="6"/>
      <path d="M   55 -56 Q   48 -135   78 -158" stroke-width="6"/>
      <path d="M   60 -56 Q   72 -130   90 -150" stroke-width="5.5"/>
      <path d="M   85 -52 Q   78 -125  108 -145" stroke-width="5.5"/>
      <path d="M   90 -52 Q  102 -120  118 -138" stroke-width="5"/>
      <path d="M  115 -42 Q  108 -115  138 -130" stroke-width="5"/>
      <path d="M  120 -42 Q  132 -110  148 -125" stroke-width="4.5"/>
      <path d="M  145 -32 Q  140 -100  170 -115" stroke-width="4"/>
      <path d="M  150 -32 Q  162 -95   180 -108" stroke-width="3.5"/>
      <path d="M  175 -18 Q  178 -75   200 -85"  stroke-width="3"/>
    </g>
    <g stroke="#000" stroke-linecap="round" fill="none" stroke-width="2.2">
      <path d="M -120 42 Q -115 70 -105 85"/>
      <path d="M  -60 55 Q  -50 80 -38 95"/>
      <path d="M    0 60 Q   10 85  20 100"/>
      <path d="M   60 55 Q   70 80  82 92"/>
      <path d="M  120 42 Q  130 65 140 78"/>
    </g>
  </g>
  <text x="400" y="555" text-anchor="middle" font-family="Georgia, serif"
        font-size="18" font-weight="300" fill="#f5d77b" letter-spacing="6" font-style="italic">GLAMOUR · 25MM</text>
</svg>
